Coordinates
version=1
nRows=21
nColumns=22
inDegrees=yes

Units are S.I. units (second, meters, Newtons, ...)
If the header above contains a line with 'inDegrees', this indicates whether rotational values are in degrees (yes) or radians (no).

endheader
time	pelvis_tilt	pelvis_list	pelvis_rotation	pelvis_tx	pelvis_ty	pelvis_tz	hip_flexion_r	hip_adduction_r	hip_rotation_r	knee_angle_r	ankle_angle_r	subtalar_angle_r	hip_flexion_l	hip_adduction_l	hip_rotation_l	knee_angle_l	ankle_angle_l	subtalar_angle_l	lumbar_extension	lumbar_bending	lumbar_rotation
      1.66000000	      6.06943907	     -5.81940092	     69.24340919	      0.94430109	      0.99458212	      0.50188532	     21.11283861	      5.26314943	      2.24132207	    -22.48833500	      3.15472905	     10.70837900	      1.98286512	     -5.45517936	     -3.23872858	    -55.24759906	    -10.62226543	      1.52202200	      0.53817577	      3.22509300	     -7.50592728
      1.67000000	      6.34505296	     -5.78884894	     70.02380019	      0.94859909	      0.99621430	      0.49201455	     20.16186016	      5.41040494	      1.73804086	    -22.23003215	      3.58368708	     10.42245964	      3.79275302	     -6.31642624	     -3.80714622	    -57.73978394	     -9.39479102	      0.79056011	      0.46428151	      3.33650237	     -7.25305132
      1.68000000	      6.55008536	     -5.71272321	     70.75410901	      0.95269029	      0.99780807	      0.48217901	     19.19715559	      5.49546807	      1.31714323	    -21.96419052	      4.01486465	     10.18280690	      5.51056457	     -7.03915840	     -4.35286460	    -59.84823355	     -7.88332585	     -0.09788214	      0.36564474	      3.36661186	     -6.92995704
      1.69000000	      6.71834786	     -5.57751233	     71.42799883	      0.95657215	      0.99941303	      0.47238533	     18.19583416	      5.54021709	      0.91910261	    -21.69593625	      4.43435650	     10.03817529	      7.10260522	     -7.65763688	     -4.91822540	    -61.56831908	     -6.21373741	     -0.96357580	      0.20982715	      3.35251924	     -6.52740021
      1.70000000	      6.82975139	     -5.38757747	     72.04260608	      0.96025752	      1.00103997	      0.46260300	     17.14589742	      5.52773326	      0.55935813	    -21.39032846	      4.83757713	      9.94147209	      8.56375372	     -8.14742818	     -5.51865711	    -62.88453226	     -4.45801256	     -1.79811122	      0.01801987	      3.27423043	     -6.06888363
      1.71000000	      6.88712253	     -5.14525569	     72.60868268	      0.96370961	      1.00266801	      0.45291329	     16.07045278	      5.45871210	      0.22501309	    -21.08304013	      5.22256436	      9.86532074	      9.90974758	     -8.50040229	     -6.13499748	    -63.82622494	     -2.70788162	     -2.62890428	     -0.22523747	      3.13559931	     -5.55460896
      1.72000000	      6.92048152	     -4.87294622	     73.13847353	      0.96693549	      1.00426649	      0.44327855	     14.96510166	      5.36357387	     -0.12080641	    -20.74675710	      5.61373710	      9.81802594	     11.15828096	     -8.76117881	     -6.76993876	    -64.41839340	     -0.97888349	     -3.23857825	     -0.49625332	      2.98203131	     -5.01797208
      1.73000000	      6.88180733	     -4.56732033	     73.63828638	      0.96991996	      1.00583053	      0.43371416	     13.85012700	      5.18916058	     -0.47910972	    -20.39903381	      5.97996140	      9.77222245	     12.31456122	     -8.87358867	     -7.42869294	    -64.65752315	      0.69541319	     -3.86269797	     -0.78647709	      2.75518789	     -4.48552690
      1.74000000	      6.80820276	     -4.26263476	     74.13083374	      0.97265059	      1.00729707	      0.42424694	     12.74387933	      4.98153325	     -0.84414790	    -20.03056069	      6.30700166	      9.74355046	     13.42687951	     -8.87949110	     -8.06861741	    -64.59468869	      2.30303403	     -4.37666555	     -1.07210171	      2.50527944	     -3.95994419
      1.75000000	      6.72136859	     -3.98501443	     74.62433340	      0.97517075	      1.00861194	      0.41488203	     11.66928932	      4.76808309	     -1.24393212	    -19.64951561	      6.62656926	      9.72915522	     14.52458322	     -8.83527095	     -8.71430268	    -64.26300791	      3.82137934	     -4.76256133	     -1.33310566	      2.26081144	     -3.46593311
      1.76000000	      6.63644933	     -3.72353665	     75.13272291	      0.97747358	      1.00979366	      0.40558947	     10.59619822	      4.56383943	     -1.64291248	    -19.23385375	      6.90409436	      9.73746643	     15.59729694	     -8.74879029	     -9.34251593	    -63.69081061	      5.20635792	     -5.10560405	     -1.57973287	      2.03192176	     -2.99088785
      1.77000000	      6.56825381	     -3.51310466	     75.65035863	      0.97962889	      1.01077666	      0.39638509	      9.56803348	      4.39417759	     -2.07398435	    -18.80287730	      7.16925068	      9.76119057	     16.67929322	     -8.68443048	    -10.00022921	    -62.90951614	      6.42806743	     -5.36070846	     -1.78213298	      1.84054540	     -2.55401021
      1.78000000	      6.52946937	     -3.32505676	     76.18539059	      0.98163462	      1.01160210	      0.38722633	      8.53994049	      4.26627885	     -2.52107647	    -18.33798432	      7.41518470	      9.81020158	     17.73529617	     -8.65055884	    -10.67966569	    -61.94133196	      7.44560586	     -5.57169492	     -1.96932947	      1.68814299	     -2.13309365
      1.79000000	      6.51861659	     -3.18428204	     76.72631266	      0.98353206	      1.01221367	      0.37810550	      7.55256824	      4.18775568	     -2.99369717	    -17.86320850	      7.65552022	      9.86797331	     18.78567288	     -8.67883944	    -11.42391426	    -60.81054030	      8.27007036	     -5.72157720	     -2.11054592	      1.58144708	     -1.74924619
      1.80000000	      6.53430383	     -3.04543821	     77.28052551	      0.98529329	      1.01267514	      0.36898894	      6.54990323	      4.14523705	     -3.49072412	    -17.36111115	      7.90925759	      9.94954938	     19.77708483	     -8.74507825	    -12.20763482	    -59.52498492	      8.88748417	     -5.84449628	     -2.25651216	      1.50153455	     -1.35476657
      1.81000000	      6.56047862	     -2.92612674	     77.83641591	      0.98693629	      1.01294012	      0.35986900	      5.57473372	      4.12776550	     -4.01285309	    -16.86956161	      8.19188737	     10.03544992	     20.72151323	     -8.85085287	    -13.06530872	    -58.09573135	      9.33951946	     -5.93243384	     -2.38014456	      1.43961193	     -0.98246117
      1.82000000	      6.58799307	     -2.80867950	     78.39584269	      0.98843183	      1.01303182	      0.35073652	      4.61646719	      4.12030098	     -4.55287982	    -16.40012172	      8.51294564	     10.12685891	     21.59507780	     -8.96879434	    -13.97917261	    -56.52211746	      9.64288158	     -5.98934747	     -2.50021349	      1.38117446	     -0.62163795
      1.83000000	      6.60891395	     -2.69017944	     78.95870692	      0.98976281	      1.01294561	      0.34159422	      3.68163590	      4.11329300	     -5.09853286	    -15.97004265	      8.87064689	     10.22372176	     22.39439408	     -9.07962030	    -14.93613027	    -54.80888852	      9.83229189	     -6.01261101	     -2.61849914	      1.31690363	     -0.26748315
      1.84000000	      6.61757751	     -2.56761955	     79.52695300	      0.99091031	      1.01268360	      0.33244979	      2.77484679	      4.09983756	     -5.62729415	    -15.59382134	      9.25618782	     10.31404733	     23.11586593	     -9.16458002	    -15.92019544	    -52.95590682	      9.92715102	     -5.99206399	     -2.73858715	      1.24126490	      0.06430855
      1.85000000	      6.61837478	     -2.44219347	     80.09820868	      0.99185582	      1.01223565	      0.32331348	      1.90068845	      4.08322176	     -6.13332530	    -15.28078865	      9.65251203	     10.38898350	     23.76404641	     -9.21393045	    -16.90847097	    -50.96979706	      9.94912692	     -5.92334571	     -2.86218711	      1.15803461	      0.39336926
      1.86000000	      6.61310854	     -2.31179447	     80.67200293	      0.99258899	      1.01159715	      0.31418946	      1.05784473	      4.06376142	     -6.60600378	    -15.03516564	     10.04435751	     10.43570700	     24.34142332	     -9.22276817	    -17.89608650	    -48.85835025	      9.90950243	     -5.80183489	     -2.99152187	      1.07088554	      0.70233249
